# xmcd
#
# Track frame offsets: 
#        150
#        22367
#        48198
#        74903
#        106758
#        134603
#        160759
#        178077
#        205486
#        223727
#        243125
#        266293
#
# Disc length: 4002 seconds
#
# Revision: 5
# Processed by: cddbd v1.5.2PL0 Copyright (c) Steve Scherf et al.
# Submitted via: ExactAudioCopy v1.0b6
#
DISCID=b60fa00c
DTITLE=Juan Atkins - 20 Years Metroplex 1985 - 2005 [CD 2)
DYEAR=2005
DGENRE=Techno
TTITLE0=Cybotron - Clear
TTITLE1=Cybotron - Dreamaker
TTITLE2=Infiniti Feat. Juan Atkins - Skyway
TTITLE3=Model 500 - No UFO's
TTITLE4=Model 500 - Night Drive (Thru Babylon)
TTITLE5=Model 500 - Ocean To Ocean
TTITLE6=Something About The Music
TTITLE7=Model 500 - Off To Battle
TTITLE8=Cybotron - Cosmic Raindance
TTITLE9=Model 500 - The Flow
TTITLE10=Visions - Other Side Of Life
TTITLE11=Model 500 - The Passage
EXTD=YEAR: 2005
EXTT0=
EXTT1=
EXTT2=
EXTT3=
EXTT4=
EXTT5=
EXTT6=
EXTT7=
EXTT8=
EXTT9=
EXTT10=
EXTT11=
PLAYORDER=
